<?xml version="1.0" encoding="utf-8"?>
<svg version="1.1" id="Layer_1" xmlns="http://www.w3.org/2000/svg" xmlns:xlink="http://www.w3.org/1999/xlink" x="0px"
     y="0px"
     viewBox="0 0 842 596" style="enable-background:new 0 0 842 596;" xml:space="preserve">
<style type="text/css">
	.headerline{fill:none;stroke:#000000;stroke-miterlimit:10;}
	.row_line{fill:none;stroke:#77787B;stroke-width:0.25;stroke-miterlimit:10;}
	.medium{font-family:'Gotham-Medium';}
	.font_size{font-size:7px;}
	.light{font-family:'Gotham-Light';}
	.slash{fill:#77787B;}
	.medium_plus{font-family:'Gotham-Medium+';}
	.st7{fill:#FFFFFF;}
	.row_line1{letter-spacing:-1;}
</style>
    <image x="28" y="36" height="22" xlink:href="logo_AppCode.svg" /><text transform="matrix(1 0 0 1 28 76)"><tspan x="0" y="0" class="medium font_size">EDITING</tspan></text>
<line class="headerline" x1="28" y1="80" x2="252" y2="80"/>
<text transform="matrix(1 0 0 1 28 88)"><tspan x="0" y="0" class="light font_size">Basic code completion</tspan></text>
<text transform="matrix(1 0 0 1 184 88)"><tspan x="0" y="0" class="medium_plus font_size">⌃Space</tspan></text><line class="row_line" x1="28" y1="92" x2="252" y2="92"/>
<text transform="matrix(1 0 0 1 28 100)"><tspan x="0" y="0" class="light font_size">Smart code completion</tspan></text>
<text transform="matrix(1 0 0 1 184 100)"><tspan x="0" y="0" class="medium_plus font_size">⇧⌃Space</tspan></text><line class="row_line" x1="28" y1="104" x2="252" y2="104"/>
<text transform="matrix(1 0 0 1 28 112)"><tspan x="0" y="0" class="light font_size">Complete statement</tspan></text>
<text transform="matrix(1 0 0 1 184 112)"><tspan x="0" y="0" class="medium_plus font_size">⇧⌘↩</tspan></text><line class="row_line" x1="28" y1="116" x2="252" y2="116"/>
<text transform="matrix(1 0 0 1 28 124)"><tspan x="0" y="0" class="light font_size">Parameter info</tspan></text>
<text transform="matrix(1 0 0 1 184 124)"><tspan x="0" y="0" class="medium_plus font_size">⇧⌘P</tspan></text><line class="row_line" x1="28" y1="128" x2="252" y2="128"/>
<text transform="matrix(1 0 0 1 28 136)"><tspan x="0" y="0" class="light font_size">Quick Documentation</tspan></text>
<text transform="matrix(1 0 0 1 184 136)"><tspan x="0" y="0" class="medium_plus font_size">⇧⌃⌘/</tspan></text><line class="row_line" x1="28" y1="140" x2="252" y2="140"/>
<text transform="matrix(1 0 0 1 28 148)"><tspan x="0" y="0" class="light font_size">External Documentation</tspan></text>
<text transform="matrix(1 0 0 1 184 148)"><tspan x="0" y="0" class="medium_plus font_size">⌃⌘⌥/</tspan></text><line class="row_line" x1="28" y1="152" x2="252" y2="152"/>
<text transform="matrix(1 0 0 1 28 160)"><tspan x="0" y="0" class="light font_size">Brief Info</tspan></text>
<text transform="matrix(1 0 0 1 184 160)"><tspan x="0" y="0" class="medium_plus font_size">⌘Mousehover</tspan></text><line class="row_line" x1="28" y1="164" x2="252" y2="164"/>
<text transform="matrix(1 0 0 1 28 172)"><tspan x="0" y="0" class="light font_size">Show description of error/warning at caret</tspan></text>
<text transform="matrix(1 0 0 1 184 172)"><tspan x="0" y="0" class="medium_plus font_size">⌘F1</tspan></text><line class="row_line" x1="28" y1="176" x2="252" y2="176"/>
<text transform="matrix(1 0 0 1 28 184)"><tspan x="0" y="0" class="light font_size">Generate Code</tspan></text>
<text transform="matrix(1 0 0 1 184 184)"><tspan x="0" y="0" class="medium_plus font_size">⌘N</tspan></text><line class="row_line" x1="28" y1="188" x2="252" y2="188"/>
<text transform="matrix(1 0 0 1 28 196)"><tspan x="0" y="0" class="light font_size">Override / Implement methods</tspan></text>
<text transform="matrix(1 0 0 1 184 196)"><tspan x="0" y="0" class="medium_plus font_size">⌃⌘O</tspan><tspan class="light font_size slash" y="0"> / </tspan><tspan y="0" class="medium_plus font_size">⌃⌘I</tspan></text><line class="row_line" x1="28" y1="200" x2="252" y2="200"/>
<text transform="matrix(1 0 0 1 28 208)"><tspan x="0" y="0" class="light font_size">Surround with...</tspan></text>
<text transform="matrix(1 0 0 1 184 208)"><tspan x="0" y="0" class="medium_plus font_size">⌘⌥T</tspan></text><line class="row_line" x1="28" y1="212" x2="252" y2="212"/>
<text transform="matrix(1 0 0 1 28 220)"><tspan x="0" y="0" class="light font_size">Move statements up / down</tspan></text>
<text transform="matrix(1 0 0 1 184 220)"><tspan x="0" y="0" class="medium_plus font_size">⌃⌘[</tspan><tspan class="light font_size slash" y="0"> / </tspan><tspan y="0" class="medium_plus font_size">⌃⌘]</tspan></text><line class="row_line" x1="28" y1="224" x2="252" y2="224"/>
<text transform="matrix(1 0 0 1 28 232)"><tspan x="0" y="0" class="light font_size">Comment with line comment</tspan></text>
<text transform="matrix(1 0 0 1 184 232)"><tspan x="0" y="0" class="medium_plus font_size">⌘/</tspan></text><line class="row_line" x1="28" y1="236" x2="252" y2="236"/>
<text transform="matrix(1 0 0 1 28 244)"><tspan x="0" y="0" class="light font_size">Comment with block comment</tspan></text>
<text transform="matrix(1 0 0 1 184 244)"><tspan x="0" y="0" class="medium_plus font_size">⌘⌥/</tspan></text><line class="row_line" x1="28" y1="248" x2="252" y2="248"/>
<text transform="matrix(1 0 0 1 28 256)"><tspan x="0" y="0" class="light font_size">Expand / shrink selection</tspan></text>
<text transform="matrix(1 0 0 1 184 256)"><tspan x="0" y="0" class="medium_plus font_size">⌘⌥↑</tspan><tspan class="light font_size slash" y="0"> / </tspan><tspan y="0" class="medium_plus font_size">⌘⌥↓</tspan></text><line class="row_line" x1="28" y1="260" x2="252" y2="260"/>
<text transform="matrix(1 0 0 1 28 268)"><tspan x="0" y="0" class="light font_size">Context info</tspan></text>
<text transform="matrix(1 0 0 1 184 268)"><tspan x="0" y="0" class="medium_plus font_size">⇧⌃Q</tspan></text><line class="row_line" x1="28" y1="272" x2="252" y2="272"/>
<text transform="matrix(1 0 0 1 28 280)"><tspan x="0" y="0" class="light font_size">Show intention actions and quick-fixes</tspan></text>
<text transform="matrix(1 0 0 1 184 280)"><tspan x="0" y="0" class="medium_plus font_size">⌥↩</tspan></text><line class="row_line" x1="28" y1="284" x2="252" y2="284"/>
<text transform="matrix(1 0 0 1 28 292)"><tspan x="0" y="0" class="light font_size">Reformat code</tspan></text>
<text transform="matrix(1 0 0 1 184 292)"><tspan x="0" y="0" class="medium_plus font_size">⌘⌥L</tspan></text><line class="row_line" x1="28" y1="296" x2="252" y2="296"/>
<text transform="matrix(1 0 0 1 28 304)"><tspan x="0" y="0" class="light font_size">Optimize imports</tspan></text>
<text transform="matrix(1 0 0 1 184 304)"><tspan x="0" y="0" class="medium_plus font_size">⌃⌥O</tspan></text><line class="row_line" x1="28" y1="308" x2="252" y2="308"/>
<text transform="matrix(1 0 0 1 28 316)"><tspan x="0" y="0" class="light font_size">Indent / unindent selected lines</tspan></text>
<text transform="matrix(1 0 0 1 184 316)"><tspan x="0" y="0" class="medium_plus font_size">⌘]</tspan><tspan class="light font_size slash" y="0"> / </tspan><tspan y="0" class="medium_plus font_size">⌘[</tspan></text><line class="row_line" x1="28" y1="320" x2="252" y2="320"/>
<text transform="matrix(1 0 0 1 28 328)"><tspan x="0" y="0" class="light font_size">Cut current line to clipboard</tspan></text>
<text transform="matrix(1 0 0 1 184 328)"><tspan x="0" y="0" class="medium_plus font_size">⌘X</tspan></text><line class="row_line" x1="28" y1="332" x2="252" y2="332"/>
<text transform="matrix(1 0 0 1 28 340)"><tspan x="0" y="0" class="light font_size">Copy current line to clipboard</tspan></text>
<text transform="matrix(1 0 0 1 184 340)"><tspan x="0" y="0" class="medium_plus font_size">⌘C</tspan></text><line class="row_line" x1="28" y1="344" x2="252" y2="344"/>
<text transform="matrix(1 0 0 1 28 352)"><tspan x="0" y="0" class="light font_size">Paste from clipboard</tspan></text>
<text transform="matrix(1 0 0 1 184 352)"><tspan x="0" y="0" class="medium_plus font_size">⌘V</tspan></text><line class="row_line" x1="28" y1="356" x2="252" y2="356"/>
<text transform="matrix(1 0 0 1 28 364)"><tspan x="0" y="0" class="light font_size">Paste from recent buffers</tspan></text>
<text transform="matrix(1 0 0 1 184 364)"><tspan x="0" y="0" class="medium_plus font_size">⇧⌘V</tspan></text><line class="row_line" x1="28" y1="368" x2="252" y2="368"/>
<text transform="matrix(1 0 0 1 28 376)"><tspan x="0" y="0" class="light font_size">Duplicate current line or selected block</tspan></text>
<text transform="matrix(1 0 0 1 184 376)"><tspan x="0" y="0" class="medium_plus font_size">⌘D</tspan></text><line class="row_line" x1="28" y1="380" x2="252" y2="380"/>
<text transform="matrix(1 0 0 1 28 388)"><tspan x="0" y="0" class="light font_size">Delete line at caret</tspan></text>
<text transform="matrix(1 0 0 1 184 388)"><tspan x="0" y="0" class="medium_plus font_size">⌘⌥⌦</tspan></text><line class="row_line" x1="28" y1="392" x2="252" y2="392"/>
<text transform="matrix(1 0 0 1 28 400)"><tspan x="0" y="0" class="light font_size">Smart line join</tspan></text>
<text transform="matrix(1 0 0 1 184 400)"><tspan x="0" y="0" class="medium_plus font_size">⇧⌃J</tspan></text><line class="row_line" x1="28" y1="404" x2="252" y2="404"/>
<text transform="matrix(1 0 0 1 28 412)"><tspan x="0" y="0" class="light font_size">Smart line split / Start new line</tspan></text>
<text transform="matrix(1 0 0 1 184 412)"><tspan x="0" y="0" class="medium_plus font_size">⌃O</tspan><tspan class="light font_size slash" y="0"> / </tspan><tspan y="0" class="medium_plus font_size">⇧↩</tspan></text><line class="row_line" x1="28" y1="416" x2="252" y2="416"/>
<text transform="matrix(1 0 0 1 28 424)"><tspan x="0" y="0" class="light font_size">Toggle case </tspan></text>
<text transform="matrix(1 0 0 1 184 424)"><tspan x="0" y="0" class="medium_plus font_size">⇧⌘U</tspan></text><line class="row_line" x1="28" y1="428" x2="252" y2="428"/>
<text transform="matrix(1 0 0 1 28 436)"><tspan x="0" y="0" class="light font_size">Select till code block end / start</tspan></text>
<text transform="matrix(1 0 0 1 184 436)"><tspan x="0" y="0" class="medium_plus font_size">⇧⌃]</tspan><tspan class="light font_size slash" y="0"> / </tspan><tspan y="0" class="medium_plus font_size">⇧⌃[</tspan></text><line class="row_line" x1="28" y1="440" x2="252" y2="440"/>
<text transform="matrix(1 0 0 1 28 448)"><tspan x="0" y="0" class="light font_size">Delete to word start / end</tspan></text>
<text transform="matrix(1 0 0 1 184 448)"><tspan x="0" y="0" class="medium_plus font_size">⌥⌫</tspan><tspan class="light font_size slash" y="0"> / </tspan><tspan y="0" class="medium_plus font_size">⌥⌦</tspan></text><line class="row_line" x1="28" y1="452" x2="252" y2="452"/>
<text transform="matrix(1 0 0 1 28 460)"><tspan x="0" y="0" class="light font_size">Expand / collapse code block</tspan></text>
<text transform="matrix(1 0 0 1 184 460)"><tspan x="0" y="0" class="medium_plus font_size">⌘+</tspan><tspan class="light font_size slash" y="0"> / </tspan><tspan y="0" class="medium_plus font_size">⌘-</tspan></text><line class="row_line" x1="28" y1="464" x2="252" y2="464"/>
<text transform="matrix(1 0 0 1 28 472)"><tspan x="0" y="0" class="light font_size">Expand / collapse code block recursively</tspan></text>
<text transform="matrix(1 0 0 1 184 472)"><tspan x="0" y="0" class="medium_plus font_size">⌘⌥+</tspan><tspan class="light font_size slash" y="0"> / </tspan><tspan y="0" class="medium_plus font_size">⌘⌥-</tspan></text><line class="row_line" x1="28" y1="476" x2="252" y2="476"/>
<text transform="matrix(1 0 0 1 28 484)"><tspan x="0" y="0" class="light font_size">Expand / collapse all</tspan></text>
<text transform="matrix(1 0 0 1 184 484)"><tspan x="0" y="0" class="medium_plus font_size">⇧⌘+</tspan><tspan class="light font_size slash" y="0"> / </tspan><tspan y="0" class="medium_plus font_size">⇧⌘-</tspan></text><line class="row_line" x1="28" y1="488" x2="252" y2="488"/>
<text transform="matrix(1 0 0 1 28 496)"><tspan x="0" y="0" class="light font_size">Close active editor tab</tspan></text>
<text transform="matrix(1 0 0 1 184 496)"><tspan x="0" y="0" class="medium_plus font_size">⌘W</tspan></text><line class="row_line" x1="28" y1="500" x2="252" y2="500"/>
<text transform="matrix(1 0 0 1 28 508)"><tspan x="0" y="0" class="light font_size">Place the caret in multiple locations</tspan></text>
<text transform="matrix(1 0 0 1 184 508)"><tspan x="0" y="0" class="medium_plus font_size">⌥⇧Click</tspan></text><line class="row_line" x1="28" y1="512" x2="252" y2="512"/>
<text transform="matrix(1 0 0 1 308 40)"><tspan x="0" y="0" class="medium font_size">SEARCH AND REPLACE</tspan></text>
<line class="headerline" x1="308" y1="44" x2="532" y2="44"/>
<text transform="matrix(1 0 0 1 308 52)"><tspan x="0" y="0" class="light font_size">Find / Replace</tspan></text>
<text transform="matrix(1 0 0 1 464 52)"><tspan x="0" y="0" class="medium_plus font_size">⌘F</tspan><tspan class="light font_size slash" y="0"> / </tspan><tspan y="0" class="medium_plus font_size">⌘⌥F</tspan></text><line class="row_line" x1="308" y1="56" x2="532" y2="56"/>
<text transform="matrix(1 0 0 1 308 64)"><tspan x="0" y="0" class="light font_size">Find next /  previous</tspan></text>
<text transform="matrix(1 0 0 1 464 64)"><tspan x="0" y="0" class="medium_plus font_size">⌘G</tspan><tspan class="light font_size slash" y="0"> / </tspan><tspan y="0" class="medium_plus font_size">⇧⌘G</tspan></text><line class="row_line" x1="308" y1="68" x2="532" y2="68"/>
<text transform="matrix(1 0 0 1 308 76)"><tspan x="0" y="0" class="light font_size">Find / Replace in path</tspan></text>
<text transform="matrix(1 0 0 1 464 76)"><tspan x="0" y="0" class="medium_plus font_size">⇧⌘F</tspan><tspan class="light font_size slash" y="0"> / </tspan><tspan y="0" class="medium_plus font_size">⇧⌘⌥F</tspan></text><line class="row_line" x1="308" y1="80" x2="532" y2="80"/>
<text transform="matrix(1 0 0 1 308 100)"><tspan x="0" y="0" class="medium font_size">USAGE SEARCH</tspan></text>
<line class="headerline" x1="308" y1="104" x2="532" y2="104"/>
<text transform="matrix(1 0 0 1 308 112)"><tspan x="0" y="0" class="light font_size">Find usages / Find usages in file</tspan></text>
<text transform="matrix(1 0 0 1 464 112)"><tspan x="0" y="0" class="medium_plus font_size">⌥F7</tspan><tspan class="light font_size slash" y="0"> / </tspan><tspan y="0" class="medium_plus font_size">⌘F7</tspan></text><line class="row_line" x1="308" y1="116" x2="532" y2="116"/>
<text transform="matrix(1 0 0 1 308 124)"><tspan x="0" y="0" class="light font_size">Highlight usages in file</tspan></text>
<text transform="matrix(1 0 0 1 464 124)"><tspan x="0" y="0" class="medium_plus font_size">⌘E</tspan></text><line class="row_line" x1="308" y1="128" x2="532" y2="128"/>
<text transform="matrix(1 0 0 1 308 136)"><tspan x="0" y="0" class="light font_size">Show usages</tspan></text>
<text transform="matrix(1 0 0 1 464 136)"><tspan x="0" y="0" class="medium_plus font_size">⌘⌥F7</tspan></text><line class="row_line" x1="308" y1="140" x2="532" y2="140"/>
<text transform="matrix(1 0 0 1 308 160)"><tspan x="0" y="0" class="medium font_size">NAVIGATION</tspan></text>
<line class="headerline" x1="308" y1="164" x2="532" y2="164"/>
<text transform="matrix(1 0 0 1 308 172)"><tspan x="0" y="0" class="light font_size">Go to class / file / symbol</tspan></text>
<text transform="matrix(1 0 0 1 464 172)"><tspan x="0" y="0" class="medium_plus font_size">⌘⌥O</tspan><tspan class="light font_size slash" y="0"> / </tspan><tspan y="0" class="medium_plus font_size">⌘O</tspan><tspan class="light font_size slash" y="0"> / </tspan><tspan y="0" class="medium_plus font_size">⇧⌘O</tspan></text><line class="row_line" x1="308" y1="176" x2="532" y2="176"/>
<text transform="matrix(1 0 0 1 308 184)"><tspan x="0" y="0" class="light font_size">Go to next / previous editor tab </tspan></text>
<text transform="matrix(1 0 0 1 464 184)"><tspan x="0" y="0" class="medium_plus font_size">⇧⌘]</tspan><tspan class="light font_size slash" y="0"> / </tspan><tspan y="0" class="medium_plus font_size">⇧⌘[</tspan></text><line class="row_line" x1="308" y1="188" x2="532" y2="188"/>
<text transform="matrix(1 0 0 1 308 196)"><tspan x="0" y="0" class="light font_size">Go back to previous tool window</tspan></text>
<text transform="matrix(1 0 0 1 464 196)"><tspan x="0" y="0" class="medium_plus font_size">F12</tspan></text><line class="row_line" x1="308" y1="200" x2="532" y2="200"/>
<text transform="matrix(1 0 0 1 308 208)"><tspan x="0" y="0" class="light font_size">Go to editor (from tool window)</tspan></text>
<text transform="matrix(1 0 0 1 464 208)"><tspan x="0" y="0" class="medium_plus font_size">⎋</tspan></text><line class="row_line" x1="308" y1="212" x2="532" y2="212"/>
<text transform="matrix(1 0 0 1 308 220)"><tspan x="0" y="0" class="light font_size">Hide active or last active window </tspan></text>
<text transform="matrix(1 0 0 1 464 220)"><tspan x="0" y="0" class="medium_plus font_size">⇧⎋</tspan></text><line class="row_line" x1="308" y1="224" x2="532" y2="224"/>
<text transform="matrix(1 0 0 1 308 232)"><tspan x="0" y="0" class="light font_size">Close active tool windows tab</tspan></text>
<text transform="matrix(1 0 0 1 464 232)"><tspan x="0" y="0" class="medium_plus font_size">⇧⌃F4</tspan></text><line class="row_line" x1="308" y1="236" x2="532" y2="236"/>
<text transform="matrix(1 0 0 1 308 244)"><tspan x="0" y="0" class="light font_size">Go to line</tspan></text>
<text transform="matrix(1 0 0 1 464 244)"><tspan x="0" y="0" class="medium_plus font_size">⌘L</tspan></text><line class="row_line" x1="308" y1="248" x2="532" y2="248"/>
<text transform="matrix(1 0 0 1 308 256)"><tspan x="0" y="0" class="light font_size">Recent files popup</tspan></text>
<text transform="matrix(1 0 0 1 464 256)"><tspan x="0" y="0" class="medium_plus font_size">⌃2</tspan></text><line class="row_line" x1="308" y1="260" x2="532" y2="260"/>
<text transform="matrix(1 0 0 1 308 268)"><tspan x="0" y="0" class="light font_size">Navigate back / forward</tspan></text>
<text transform="matrix(1 0 0 1 464 268)"><tspan x="0" y="0" class="medium_plus font_size">⌃⌘←</tspan><tspan class="light font_size slash" y="0"> / </tspan><tspan y="0" class="medium_plus font_size">⌃⌘→</tspan></text><line class="row_line" x1="308" y1="272" x2="532" y2="272"/>
<text transform="matrix(1 0 0 1 308 280)"><tspan x="0" y="0" class="light font_size">Navigate to last edit location</tspan></text>
<text transform="matrix(1 0 0 1 464 280)"><tspan x="0" y="0" class="medium_plus font_size">⇧⌘⌦</tspan></text><line class="row_line" x1="308" y1="284" x2="532" y2="284"/>
<text transform="matrix(1 0 0 1 308 292)"><tspan x="0" y="0" class="light font_size">Select current file or symbol in any view</tspan></text>
<text transform="matrix(1 0 0 1 464 292)"><tspan x="0" y="0" class="medium_plus font_size">⇧⌘J</tspan></text><line class="row_line" x1="308" y1="296" x2="532" y2="296"/>
<text transform="matrix(1 0 0 1 308 304)"><tspan x="0" y="0" class="light font_size">Go to related header or source file</tspan></text>
<text transform="matrix(1 0 0 1 464 304)"><tspan x="0" y="0" class="medium_plus font_size">⌃⌘↑</tspan></text><line class="row_line" x1="308" y1="308" x2="532" y2="308"/>
<text transform="matrix(1 0 0 1 308 316)"><tspan x="0" y="0" class="light font_size">Go to definition</tspan></text>
<text transform="matrix(1 0 0 1 464 316)"><tspan x="0" y="0" class="medium_plus font_size">⌘Click</tspan></text><line class="row_line" x1="308" y1="320" x2="532" y2="320"/>
<text transform="matrix(1 0 0 1 308 328)"><tspan x="0" y="0" class="light font_size">Go to implementation(s)</tspan></text>
<text transform="matrix(1 0 0 1 464 328)"><tspan x="0" y="0" class="medium_plus font_size">⌘⌥Click</tspan></text><line class="row_line" x1="308" y1="332" x2="532" y2="332"/>
<text transform="matrix(1 0 0 1 308 340)"><tspan x="0" y="0" class="light font_size">Open quick definition lookup</tspan></text>
<text transform="matrix(1 0 0 1 464 340)"><tspan x="0" y="0" class="medium_plus font_size">⌃F1</tspan></text><line class="row_line" x1="308" y1="344" x2="532" y2="344"/>
<text transform="matrix(1 0 0 1 308 352)"><tspan x="0" y="0" class="light font_size">Go to type declaration</tspan></text>
<text transform="matrix(1 0 0 1 464 352)"><tspan x="0" y="0" class="medium_plus font_size">⇧⌥B</tspan></text><line class="row_line" x1="308" y1="356" x2="532" y2="356"/>
<text transform="matrix(1 0 0 1 308 364)"><tspan x="0" y="0" class="light font_size">Go to super-method / super-class </tspan></text>
<text transform="matrix(1 0 0 1 464 364)"><tspan x="0" y="0" class="medium_plus font_size">⌃U</tspan></text><line class="row_line" x1="308" y1="368" x2="532" y2="368"/>
<text transform="matrix(1 0 0 1 308 376)"><tspan x="0" y="0" class="light font_size">Go to previous / next method</tspan></text>
<text transform="matrix(1 0 0 1 464 376)"><tspan x="0" y="0" class="medium_plus font_size">⌥↑</tspan><tspan class="light font_size slash" y="0"> / </tspan><tspan y="0" class="medium_plus font_size">⌥↓</tspan></text><line class="row_line" x1="308" y1="380" x2="532" y2="380"/>
<text transform="matrix(1 0 0 1 308 388)"><tspan x="0" y="0" class="light font_size">Move to code block end / start</tspan></text>
<text transform="matrix(1 0 0 1 464 388)"><tspan x="0" y="0" class="medium_plus font_size">⌃[</tspan><tspan class="light font_size slash" y="0"> / </tspan><tspan y="0" class="medium_plus font_size">⌃]</tspan></text><line class="row_line" x1="308" y1="392" x2="532" y2="392"/>
<text transform="matrix(1 0 0 1 308 400)"><tspan x="0" y="0" class="light font_size">File structure popup</tspan></text>
<text transform="matrix(1 0 0 1 464 400)"><tspan x="0" y="0" class="medium_plus font_size">⌃6</tspan></text><line class="row_line" x1="308" y1="404" x2="532" y2="404"/>
<text transform="matrix(1 0 0 1 308 412)"><tspan x="0" y="0" class="light font_size">Type / call / method hierarchy</tspan></text>
<text transform="matrix(1 0 0 1 464 412)"><tspan x="0" y="0" class="medium_plus font_size">⌃H</tspan><tspan class="light font_size slash" y="0"> / </tspan><tspan y="0" class="medium_plus font_size">⌃⌥H</tspan><tspan class="light font_size slash" y="0"> / </tspan><tspan y="0" class="medium_plus font_size">⇧⌘H</tspan></text><line class="row_line" x1="308" y1="416" x2="532" y2="416"/>
<text transform="matrix(1 0 0 1 308 424)"><tspan x="0" y="0" class="light font_size">Next / previous highlighted error </tspan></text>
<text transform="matrix(1 0 0 1 464 424)"><tspan x="0" y="0" class="medium_plus font_size">⌘'</tspan><tspan class="light font_size slash" y="0"> / </tspan><tspan y="0" class="medium_plus font_size">⇧⌘'</tspan></text><line class="row_line" x1="308" y1="428" x2="532" y2="428"/>
<text transform="matrix(1 0 0 1 308 436)"><tspan x="0" y="0" class="light font_size">Jump to source</tspan></text>
<text transform="matrix(1 0 0 1 464 436)"><tspan x="0" y="0" class="medium_plus font_size">⌘↓</tspan></text><line class="row_line" x1="308" y1="440" x2="532" y2="440"/>
<text transform="matrix(1 0 0 1 308 448)"><tspan x="0" y="0" class="light font_size">Toggle bookmark / with mnemonic</tspan></text>
<text transform="matrix(1 0 0 1 464 448)"><tspan x="0" y="0" class="medium_plus font_size">⌃F3</tspan><tspan class="light font_size slash" y="0"> / </tspan><tspan y="0" class="medium_plus font_size">⌥F3</tspan></text><line class="row_line" x1="308" y1="452" x2="532" y2="452"/>
<text transform="matrix(1 0 0 1 308 460)"><tspan x="0" y="0" class="light font_size">Go to numbered bookmark</tspan></text>
<text transform="matrix(1 0 0 1 464 460)"><tspan x="0" y="0" class="medium_plus font_size">⌃0...⌃9</tspan></text><line class="row_line" x1="308" y1="464" x2="532" y2="464"/>
<text transform="matrix(1 0 0 1 308 472)"><tspan x="0" y="0" class="light font_size">Show bookmarks</tspan></text>
<text transform="matrix(1 0 0 1 464 472)"><tspan x="0" y="0" class="medium_plus font_size">⌘F3</tspan></text><line class="row_line" x1="308" y1="476" x2="532" y2="476"/>
<text transform="matrix(1 0 0 1 308 496)"><tspan x="0" y="0" class="medium font_size">VERSION CONTROL</tspan></text>
<line class="headerline" x1="308" y1="500" x2="532" y2="500"/>
<text transform="matrix(1 0 0 1 308 508)"><tspan x="0" y="0" class="light font_size">Commit project</tspan></text>
<text transform="matrix(1 0 0 1 464 508)"><tspan x="0" y="0" class="medium_plus font_size">⌘⌥C</tspan></text><line class="row_line" x1="308" y1="512" x2="532" y2="512"/>
<text transform="matrix(1 0 0 1 308 520)"><tspan x="0" y="0" class="light font_size">Update project from VCS</tspan></text>
<text transform="matrix(1 0 0 1 464 520)"><tspan x="0" y="0" class="medium_plus font_size">⌘⌥X</tspan></text><line class="row_line" x1="308" y1="524" x2="532" y2="524"/>
<text transform="matrix(1 0 0 1 308 532)"><tspan x="0" y="0" class="light font_size">View recent changes</tspan></text>
<text transform="matrix(1 0 0 1 464 532)"><tspan x="0" y="0" class="medium_plus font_size">⇧⌥C</tspan></text><line class="row_line" x1="308" y1="536" x2="532" y2="536"/>
<text transform="matrix(1 0 0 1 308 544)"><tspan x="0" y="0" class="light font_size">VCS actions</tspan></text>
<text transform="matrix(1 0 0 1 464 544)"><tspan x="0" y="0" class="medium_plus font_size">⌃S</tspan></text><line class="row_line" x1="308" y1="548" x2="532" y2="548"/>
<text transform="matrix(1 0 0 1 588 40)"><tspan x="0" y="0" class="medium font_size">REFACTORING</tspan></text>
<line class="headerline" x1="588" y1="44" x2="812" y2="44"/>
<text transform="matrix(1 0 0 1 588 52)"><tspan x="0" y="0" class="light font_size">Refactor This</tspan></text>
<text transform="matrix(1 0 0 1 744 52)"><tspan x="0" y="0" class="medium_plus font_size">⌃⌘⌥T</tspan></text><line class="row_line" x1="588" y1="56" x2="812" y2="56"/>
<text transform="matrix(1 0 0 1 588 64)"><tspan x="0" y="0" class="light font_size">Copy / Move</tspan></text>
<text transform="matrix(1 0 0 1 744 64)"><tspan x="0" y="0" class="medium_plus font_size">F5</tspan><tspan class="light font_size slash" y="0"> / </tspan><tspan y="0" class="medium_plus font_size">⌥F6</tspan></text><line class="row_line" x1="588" y1="68" x2="812" y2="68"/>
<text transform="matrix(1 0 0 1 588 76)"><tspan x="0" y="0" class="light font_size">Safe Delete</tspan></text>
<text transform="matrix(1 0 0 1 744 76)"><tspan x="0" y="0" class="medium_plus font_size">⌘⌫</tspan></text><line class="row_line" x1="588" y1="80" x2="812" y2="80"/>
<text transform="matrix(1 0 0 1 588 88)"><tspan x="0" y="0" class="light font_size">Rename / Change Signature</tspan></text>
<text transform="matrix(1 0 0 1 744 88)"><tspan x="0" y="0" class="medium_plus font_size">⌃⌘E</tspan><tspan class="light font_size slash" y="0"> / </tspan><tspan y="0" class="medium_plus font_size">⌘F6</tspan></text><line class="row_line" x1="588" y1="92" x2="812" y2="92"/>
<text transform="matrix(1 0 0 1 588 100)"><tspan x="0" y="0" class="light font_size">Inline</tspan></text>
<text transform="matrix(1 0 0 1 744 100)"><tspan x="0" y="0" class="medium_plus font_size">⌘⌥N</tspan></text><line class="row_line" x1="588" y1="104" x2="812" y2="104"/>
<text transform="matrix(1 0 0 1 588 112)"><tspan x="0" y="0" class="light font_size">Extract Method</tspan></text>
<text transform="matrix(1 0 0 1 744 112)"><tspan x="0" y="0" class="medium_plus font_size">⌃⌘⌥M</tspan></text><line class="row_line" x1="588" y1="116" x2="812" y2="116"/>
<text transform="matrix(1 0 0 1 588 124)"><tspan x="0" y="0" class="light font_size">Extract Variable / Constant</tspan></text>
<text transform="matrix(1 0 0 1 744 124)"><tspan x="0" y="0" class="medium_plus font_size">⌃⌘⌥V</tspan><tspan class="light font_size slash" y="0"> / </tspan><tspan y="0" class="medium_plus font_size">⌃⌘⌥C</tspan></text><line class="row_line" x1="588" y1="128" x2="812" y2="128"/>
<text transform="matrix(1 0 0 1 588 136)"><tspan x="0" y="0" class="light font_size">Extract Parameter</tspan></text>
<text transform="matrix(1 0 0 1 744 136)"><tspan x="0" y="0" class="medium_plus font_size">⌃⌘⌥P</tspan></text><line class="row_line" x1="588" y1="140" x2="812" y2="140"/>
<text transform="matrix(1 0 0 1 588 148)"><tspan x="0" y="0" class="light font_size">Extract Property</tspan></text>
<text transform="matrix(1 0 0 1 744 148)"><tspan x="0" y="0" class="medium_plus font_size">⌘⌥E</tspan></text><line class="row_line" x1="588" y1="152" x2="812" y2="152"/>
<text transform="matrix(1 0 0 1 588 160)"><tspan x="0" y="0" class="light font_size">Extract Instance Variable</tspan></text>
<text transform="matrix(1 0 0 1 744 160)"><tspan x="0" y="0" class="medium_plus font_size">⌃⌘⌥F</tspan></text><line class="row_line" x1="588" y1="164" x2="812" y2="164"/>
<text transform="matrix(1 0 0 1 588 184)"><tspan x="0" y="0" class="medium font_size">COMPILE AND RUN</tspan></text>
<line class="headerline" x1="588" y1="188" x2="812" y2="188"/>
<text transform="matrix(1 0 0 1 588 196)"><tspan x="0" y="0" class="light font_size">Build Project</tspan></text>
<text transform="matrix(1 0 0 1 744 196)"><tspan x="0" y="0" class="medium_plus font_size">⌘B</tspan></text><line class="row_line" x1="588" y1="200" x2="812" y2="200"/>
<text transform="matrix(1 0 0 1 588 208)"><tspan x="0" y="0" class="light font_size">Run / Debug</tspan></text>
<text transform="matrix(1 0 0 1 744 208)"><tspan x="0" y="0" class="medium_plus font_size">⇧⌘⌥R</tspan><tspan class="light font_size slash" y="0"> / </tspan><tspan y="0" class="medium_plus font_size">⌘R</tspan></text><line class="row_line" x1="588" y1="212" x2="812" y2="212"/>
<text transform="matrix(1 0 0 1 588 220)"><tspan x="0" y="0" class="light font_size">Select configuration and run / debug</tspan></text>
<text transform="matrix(1 0 0 1 744 220)"><tspan x="0" y="0" class="medium_plus font_size">⇧⌃⌘⌥R</tspan><tspan class="light font_size slash" y="0"> / </tspan><tspan y="0" class="medium_plus font_size">⌘⌥R</tspan></text><line class="row_line" x1="588" y1="224" x2="812" y2="224"/>
<text transform="matrix(1 0 0 1 588 232)"><tspan x="0" y="0" class="light font_size">Run / Debug context configuration</tspan></text>
<text transform="matrix(1 0 0 1 744 232)"><tspan x="0" y="0" class="medium_plus font_size">⌘⌥U</tspan><tspan class="light font_size slash" y="0"> / </tspan><tspan y="0" class="medium_plus font_size">⌘U</tspan></text><line class="row_line" x1="588" y1="236" x2="812" y2="236"/>
<text transform="matrix(1 0 0 1 588 244)"><tspan x="0" y="0" class="light font_size">Run Anything</tspan></text>
<text transform="matrix(1 0 0 1 744 244)"><tspan x="0" y="0" class="medium_plus font_size">Double⌃</tspan></text><line class="row_line" x1="588" y1="248" x2="812" y2="248"/>
<text transform="matrix(1 0 0 1 588 268)"><tspan x="0" y="0" class="medium font_size">DEBUGGING</tspan></text>
<line class="headerline" x1="588" y1="272" x2="812" y2="272"/>
<text transform="matrix(1 0 0 1 588 280)"><tspan x="0" y="0" class="light font_size">Step into / over / out</tspan></text>
<text transform="matrix(1 0 0 1 744 280)"><tspan x="0" y="0" class="medium_plus font_size">F7</tspan><tspan class="light font_size slash" y="0"> / </tspan><tspan y="0" class="medium_plus font_size">F6</tspan><tspan class="light font_size slash" y="0"> / </tspan><tspan y="0" class="medium_plus font_size">F8</tspan></text><line class="row_line" x1="588" y1="284" x2="812" y2="284"/>
<text transform="matrix(1 0 0 1 588 292)"><tspan x="0" y="0" class="light font_size">Run to cursor</tspan></text>
<text transform="matrix(1 0 0 1 744 292)"><tspan x="0" y="0" class="medium_plus font_size">⌃⌘C</tspan></text><line class="row_line" x1="588" y1="296" x2="812" y2="296"/>
<text transform="matrix(1 0 0 1 588 304)"><tspan x="0" y="0" class="light font_size">Evaluate expression</tspan></text>
<text transform="matrix(1 0 0 1 744 304)"><tspan x="0" y="0" class="medium_plus font_size">⌥F8</tspan></text><line class="row_line" x1="588" y1="308" x2="812" y2="308"/>
<text transform="matrix(1 0 0 1 588 316)"><tspan x="0" y="0" class="light font_size">Resume program</tspan></text>
<text transform="matrix(1 0 0 1 744 316)"><tspan x="0" y="0" class="medium_plus font_size">⌃⌘Y</tspan></text><line class="row_line" x1="588" y1="320" x2="812" y2="320"/>
<text transform="matrix(1 0 0 1 588 328)"><tspan x="0" y="0" class="light font_size">Toggle breakpoint</tspan></text>
<text transform="matrix(1 0 0 1 744 328)"><tspan x="0" y="0" class="medium_plus font_size">⌘&#x5c;</tspan></text><line class="row_line" x1="588" y1="332" x2="812" y2="332"/>
<text transform="matrix(1 0 0 1 588 340)"><tspan x="0" y="0" class="light font_size">View breakpoints</tspan></text>
<text transform="matrix(1 0 0 1 744 340)"><tspan x="0" y="0" class="medium_plus font_size">⌘8</tspan></text><line class="row_line" x1="588" y1="344" x2="812" y2="344"/>
<text transform="matrix(1 0 0 1 588 364)"><tspan x="0" y="0" class="medium font_size">LIVE TEMPLATES</tspan></text>
<line class="headerline" x1="588" y1="368" x2="812" y2="368"/>
<text transform="matrix(1 0 0 1 588 376)"><tspan x="0" y="0" class="light font_size">Surround with Live Template</tspan></text>
<text transform="matrix(1 0 0 1 744 376)"><tspan x="0" y="0" class="medium_plus font_size">⌘⌥J</tspan></text><line class="row_line" x1="588" y1="380" x2="812" y2="380"/>
<text transform="matrix(1 0 0 1 588 388)"><tspan x="0" y="0" class="light font_size">Insert Live Template</tspan></text>
<text transform="matrix(1 0 0 1 744 388)"><tspan x="0" y="0" class="medium_plus font_size">⌘J</tspan></text><line class="row_line" x1="588" y1="392" x2="812" y2="392"/>
<text transform="matrix(1 0 0 1 588 412)"><tspan x="0" y="0" class="medium font_size">GENERAL</tspan></text>
<line class="headerline" x1="588" y1="416" x2="812" y2="416"/>
<text transform="matrix(1 0 0 1 588 424)"><tspan x="0" y="0" class="light font_size">Search Everywhere</tspan></text>
<text transform="matrix(1 0 0 1 744 424)"><tspan x="0" y="0" class="medium_plus font_size">Double⇧</tspan></text><line class="row_line" x1="588" y1="428" x2="812" y2="428"/>
<text transform="matrix(1 0 0 1 588 436)"><tspan x="0" y="0" class="light font_size">Find any IDE action</tspan></text>
<text transform="matrix(1 0 0 1 744 436)"><tspan x="0" y="0" class="medium_plus font_size">⇧⌘A</tspan></text><line class="row_line" x1="588" y1="440" x2="812" y2="440"/>
<text transform="matrix(1 0 0 1 588 448)"><tspan x="0" y="0" class="light font_size">Open corresponding tool window</tspan></text>
<text transform="matrix(1 0 0 1 744 448)"><tspan x="0" y="0" class="medium_plus font_size">⌘0...⌘9</tspan></text><line class="row_line" x1="588" y1="452" x2="812" y2="452"/>
<text transform="matrix(1 0 0 1 588 460)"><tspan x="0" y="0" class="light font_size">Hide all tool windows</tspan></text>
<text transform="matrix(1 0 0 1 744 460)"><tspan x="0" y="0" class="medium_plus font_size">⇧⌘F12</tspan></text><line class="row_line" x1="588" y1="464" x2="812" y2="464"/>
<text transform="matrix(1 0 0 1 588 472)"><tspan x="0" y="0" class="light font_size">Add to Favorites</tspan></text>
<text transform="matrix(1 0 0 1 744 472)"><tspan x="0" y="0" class="medium_plus font_size">⇧⌥F</tspan></text><line class="row_line" x1="588" y1="476" x2="812" y2="476"/>
<text transform="matrix(1 0 0 1 588 484)"><tspan x="0" y="0" class="light font_size">Inspect current file with current profile</tspan></text>
<text transform="matrix(1 0 0 1 744 484)"><tspan x="0" y="0" class="medium_plus font_size">⇧⌥I</tspan></text><line class="row_line" x1="588" y1="488" x2="812" y2="488"/>
<text transform="matrix(1 0 0 1 588 496)"><tspan x="0" y="0" class="light font_size">Quick switch current scheme</tspan></text>
<text transform="matrix(1 0 0 1 744 496)"><tspan x="0" y="0" class="medium_plus font_size">⌃`</tspan></text><line class="row_line" x1="588" y1="500" x2="812" y2="500"/>
<text transform="matrix(1 0 0 1 588 508)"><tspan x="0" y="0" class="light font_size">Switch between tabs and tool windows</tspan></text>
<text transform="matrix(1 0 0 1 744 508)"><tspan x="0" y="0" class="medium_plus font_size">⌃⇥</tspan></text><line class="row_line" x1="588" y1="512" x2="812" y2="512"/>
</svg>